<svg 
 xmlns="http://www.w3.org/2000/svg"
 xmlns:xlink="http://www.w3.org/1999/xlink"
 width="10px" height="11px">
<path fill-rule="evenodd"  fill="rgb(128, 132, 132)"
 d="M6.457,5.506 L9.855,9.922 C10.090,10.228 10.019,10.656 9.695,10.879 C9.567,10.967 9.418,11.010 9.269,11.010 C9.046,11.010 8.825,10.912 8.683,10.728 L4.974,5.908 C4.789,5.668 4.789,5.343 4.974,5.103 L8.683,0.282 C8.918,-0.025 9.373,-0.092 9.695,0.131 C10.019,0.353 10.090,0.782 9.855,1.087 L6.457,5.506 ZM1.624,5.506 L5.022,9.922 C5.258,10.228 5.187,10.656 4.863,10.879 C4.734,10.967 4.585,11.010 4.436,11.010 C4.213,11.010 3.992,10.912 3.850,10.728 L0.142,5.908 C-0.044,5.668 -0.044,5.343 0.142,5.103 L3.850,0.282 C4.085,-0.025 4.540,-0.092 4.863,0.131 C5.187,0.353 5.258,0.782 5.022,1.087 L1.624,5.506 Z"/>
</svg>