<svg 
 xmlns="http://www.w3.org/2000/svg"
 xmlns:xlink="http://www.w3.org/1999/xlink"
 width="11px" height="11px">
<path fill-rule="evenodd"  fill="rgb(128, 132, 132)"
 d="M9.889,5.908 L6.169,10.728 C6.027,10.912 5.805,11.010 5.581,11.010 C5.432,11.010 5.282,10.967 5.153,10.879 C4.828,10.656 4.757,10.228 4.993,9.922 L8.402,5.506 L4.993,1.087 C4.757,0.782 4.828,0.353 5.153,0.131 C5.477,-0.092 5.933,-0.025 6.169,0.282 L9.889,5.103 C10.075,5.343 10.075,5.668 9.889,5.908 ZM5.041,5.908 L1.321,10.728 C1.179,10.912 0.957,11.010 0.733,11.010 C0.584,11.010 0.435,10.967 0.305,10.879 C-0.020,10.656 -0.091,10.228 0.145,9.922 L3.554,5.506 L0.145,1.087 C-0.091,0.782 -0.020,0.353 0.305,0.131 C0.629,-0.092 1.085,-0.025 1.321,0.282 L5.041,5.103 C5.227,5.343 5.227,5.668 5.041,5.908 Z"/>
</svg>